<svg height="512pt" viewBox="0 -20 512.00175 512" width="512pt" xmlns="http://www.w3.org/2000/svg"><path d="m510.929688 231.933594c-12.921876-25.582032-36.460938-44.148438-63.714844-51.144532 10.722656-17.035156 16.089844-37.21875 14.921875-58.097656-.175781-3.171875-1.851563-6.070312-4.507813-7.808594-17.308594-11.324218-37.582031-16.726562-57.714844-16.011718 7.824219-27.300782 3.5-56.738282-12.394531-81.03125-1.738281-2.660156-4.636719-4.332032-7.808593-4.511719-28.722657-1.597656-56.664063 9.582031-76.359376 29.820313-2.382812-4.503907-5.109374-8.84375-8.191406-12.972657-3.304687-4.421875-9.570312-5.328125-13.996094-2.019531-4.425781 3.304688-5.332031 9.570312-2.023437 13.996094 7.746094 10.363281 12.753906 22.386718 14.683594 35.085937-5.78125 3.339844-11.246094 7.273438-16.320313 11.75-5.097656-4.398437-10.785156-8.230469-16.992187-11.367187-2.835938-1.429688-6.183594-1.429688-9.019531 0-6.207032 3.136718-11.894532 6.96875-16.992188 11.367187-5.074219-4.476562-10.539062-8.410156-16.320312-11.75 1.957031-12.878906 7.101562-25.09375 15.015624-35.53125 3.335938-4.398437 2.476563-10.671875-1.925781-14.007812-4.398437-3.339844-10.671875-2.476563-14.011719 1.925781-3.167968 4.179688-5.972656 8.589844-8.417968 13.179688-19.730469-20.34375-47.332032-31.273438-76.246094-29.648438-3.171875.179688-6.070312 1.851562-7.8125 4.507812-15.757812 24.082032-20.042969 53.898438-12.34375 81.089844-20.078125-.746094-40.203125 4.699219-57.667969 16.128906-2.660156 1.738282-4.332031 4.636719-4.511719 7.808594-1.144531 20.515625 4.230469 40.644532 14.777344 57.648438-27.550781 6.882812-50.875 25.339844-63.960937 51.25-1.433594 2.835937-1.433594 6.183594 0 9.015625 13.011719 25.765625 36.792969 44.417969 64.296875 51.296875-10.765625 17.117187-16.269532 37.445312-15.113282 58.171875.179688 3.171875 1.851563 6.070312 4.507813 7.8125 16.417969 10.742187 35.179687 16.203125 54.046875 16.203125 1.054688 0 2.113281-.023438 3.171875-.058594-7.679687 27.203125-3.328125 56.484375 12.5 80.671875 1.738281 2.65625 4.636719 4.328125 7.808594 4.507813 1.820312.101562 3.636719.152343 5.449219.152343 26.753906 0 52.421874-10.996093 70.867187-29.921875 9.390625 17.824219 24.199219 32.585938 42.882813 42.023438 1.414062.714844 2.960937 1.074218 4.507812 1.074218 1.542969 0 3.089844-.359374 4.507812-1.074218 18.390626-9.289063 33.164063-24.066406 42.613282-41.765625 18.445312 19.042969 43.785156 29.839843 70.660156 29.839843 1.867188 0 3.75-.050781 5.628906-.15625 3.167969-.179687 6.070313-1.851562 7.808594-4.507812 15.742188-24.054688 20.03125-53.828125 12.371094-80.992188 1.285156.046876 2.570312.082032 3.855468.082032 18.960938 0 37.886719-5.414063 54.183594-16.078125 2.65625-1.742188 4.328125-4.640625 4.507813-7.8125 1.164062-20.820313-4.175781-40.953125-14.839844-57.957031 27.402344-6.949219 50.59375-25.359376 63.628906-51.167969 1.433594-2.832031 1.433594-6.179688.003907-9.015625zm-122.714844 40.308594c-6.71875-14.625-17.671875-27.199219-31.941406-35.96875 14.269531-8.773438 25.222656-21.347657 31.941406-35.96875 18.480468 6.28125 34.058594 18.980468 44 35.96875-9.941406 16.984374-25.519532 29.683593-44 35.96875zm-44.105469 116.632812c-19.679687-.117188-38.46875-7.257812-53.152344-20.117188 9.304688-13.132812 14.71875-28.90625 15.179688-45.648437 14.730469 7.96875 31.097656 11.171875 47.121093 9.675781 3.800782 19.148438.589844 38.988282-9.148437 56.089844zm-176.214844 0c-9.738281-17.101562-12.949219-36.941406-9.148437-56.089844 16.023437 1.496094 32.390625-1.703125 47.121094-9.675781.460937 16.742187 5.875 32.515625 15.179687 45.648437-14.683594 12.859376-33.46875 20-53.152344 20.117188zm-88.105469-152.605469c5.996094-10.25 14.0625-18.917969 23.566407-25.578125.910156-.433594 1.765625-1.003906 2.523437-1.714844 5.554688-3.589843 11.558594-6.515624 17.910156-8.675781 6.71875 14.625 17.671876 27.199219 31.941407 35.96875-14.269531 8.773438-25.222657 21.347657-31.941407 35.96875-18.480468-6.28125-34.058593-18.980469-44-35.96875zm88.105469-152.605469c19.679688.121094 38.46875 7.261719 53.152344 20.121094-9.304687 13.132813-14.71875 28.90625-15.179687 45.648438-14.730469-7.972656-31.097657-11.167969-47.121094-9.675782-3.800782-19.148437-.589844-38.988281 9.148437-56.09375zm176.214844 0c9.738281 17.105469 12.949219 36.945313 9.148437 56.09375-16.023437-1.492187-32.390624 1.703126-47.121093 9.675782-.460938-16.742188-5.875-32.515625-15.179688-45.648438 14.683594-12.859375 33.46875-20 53.152344-20.121094zm-30.015625 84.230469c13.546875-7.820312 29.0625-10.210937 43.789062-7.265625.503907.148438 1.011719.257813 1.519532.324219 5.636718 1.273437 11.144531 3.328125 16.359375 6.171875-.144531 5.972656-1.125 11.796875-2.855469 17.339844-.179688.4375-.328125.890625-.445312 1.363281-4.808594 14.238281-14.640626 26.492187-28.199219 34.320313-4.695313 2.710937-9.722657 4.800781-14.941407 6.222656-2.648437-19.714844-13.082031-36.988282-28.109374-48.625 3.847656-3.816406 8.175781-7.132813 12.882812-9.851563zm-4.089844 68.375c0 29.777344-24.226562 54-54 54-29.777344 0-54-24.222656-54-54 0-29.773437 24.222656-54 54-54 29.773438 0 54 24.226563 54 54zm-157.40625-75.316406c.511719-.066406 1.019532-.175781 1.527344-.324219 14.722656-2.945312 30.238281-.554687 43.785156 7.269532 4.707032 2.714843 9.03125 6.03125 12.882813 9.851562-15.027344 11.632812-25.460938 28.90625-28.109375 48.625-5.21875-1.425781-10.246094-3.511719-14.941406-6.222656-13.558594-7.828125-23.390626-20.085938-28.199219-34.324219-.117188-.46875-.269531-.921875-.445313-1.359375-1.730468-5.542969-2.710937-11.367188-2.855468-17.339844 5.214843-2.847656 10.722656-4.902344 16.355468-6.175781zm-13.535156 127.242187c.199219-.476562.359375-.980468.488281-1.5 4.808594-14.230468 14.640625-26.476562 28.191407-34.300781 4.695312-2.714843 9.722656-4.800781 14.941406-6.226562 2.648437 19.71875 13.082031 36.992187 28.109375 48.625-3.851563 3.820312-8.175781 7.136719-12.882813 9.855469-13.554687 7.824218-29.078125 10.214843-43.8125 7.261718-.476562-.140625-.953125-.238281-1.429687-.304687-5.660157-1.269531-11.1875-3.332031-16.425781-6.1875.144531-5.929688 1.113281-11.714844 2.820312-17.222657zm103.351562 75.21875c-.289062-.371093-.605468-.726562-.953124-1.058593-9.929688-11.285157-15.628907-25.929688-15.628907-41.585938 0-5.421875.707031-10.816406 2.082031-16.050781 8.664063 3.570312 18.148438 5.550781 28.085938 5.550781 9.941406 0 19.421875-1.980469 28.089844-5.550781 1.375 5.234375 2.078125 10.628906 2.078125 16.050781 0 15.65625-5.695313 30.300781-15.628907 41.585938-.347656.332031-.660156.6875-.949218 1.058593-3.9375 4.269532-8.488282 8.035157-13.589844 11.144532-5.097656-3.109375-9.652344-6.871094-13.585938-11.144532zm116.914063-51.808593c-.472656.066406-.945313.164062-1.417969.300781-14.730468 2.957031-30.261718.566406-43.816406-7.257812-4.707031-2.71875-9.03125-6.035157-12.882812-9.855469 15.027343-11.632813 25.460937-28.90625 28.109374-48.625 5.21875 1.425781 10.246094 3.511719 14.941407 6.226562 13.550781 7.824219 23.382812 20.070313 28.191406 34.300781.128906.519532.289063 1.023438.488281 1.5 1.707032 5.507813 2.675782 11.292969 2.820313 17.21875-5.238281 2.859376-10.769531 4.921876-16.433594 6.191407zm82.960937-182.65625c-.15625 19.300781-7.289062 37.566406-19.90625 51.664062-.417968.386719-.804687.800781-1.152343 1.253907-2.585938 2.765624-5.382813 5.359374-8.390625 7.757812-5.84375-3.386719-12.050782-6.195312-18.539063-8.375 1.257813-6.613281 1.734375-13.453125 1.347657-20.398438-.175782-3.171874-1.851563-6.070312-4.507813-7.8125-5.824219-3.808593-11.984375-6.8125-18.339844-9.03125 1.328125-6.566406 1.996094-13.199218 2.011719-19.8125 21.910156-8.597656 46.882812-6.863281 67.476562 4.753907zm-130.75-64.730469c14.632813-19.257812 37.675782-30.792969 61.921876-31.035156 12.019531 21.210937 13.570312 46.558594 4.101562 69.074218-1.609375.4375-3.210938.910157-4.804688 1.433594-2.542968-12.425781-7.433593-24.421875-14.589843-35.355468-1.738281-2.660157-4.636719-4.332032-7.808594-4.511719-12.988281-.722657-25.757813 1.023437-37.738281 4.988281-.324219-1.542969-.683594-3.074219-1.082032-4.59375zm-55.535156 33.765625c5.097656 3.109375 9.652344 6.871094 13.585938 11.144531.289062.367188.605468.722656.953125 1.058594 9.929687 11.285156 15.628906 25.929688 15.628906 41.585938 0 5.421874-.707031 10.816406-2.082031 16.050781-8.664063-3.570313-18.148438-5.554688-28.085938-5.554688-9.941406 0-19.421875 1.984375-28.089844 5.554688-1.375-5.234375-2.078124-10.628907-2.078124-16.050781 0-15.65625 5.695312-30.300782 15.628906-41.585938.347656-.332031.660156-.691406.949218-1.058594 3.933594-4.273437 8.488282-8.035156 13.589844-11.144531zm-117.152344-64.980469c24.300782.199219 46.964844 11.457032 61.730469 30.800782-.441406 1.65625-.851562 3.320312-1.203125 5.003906-11.980468-3.964844-24.75-5.710938-37.734375-4.984375-3.167969.175781-6.070312 1.851562-7.808593 4.507812-7.128907 10.894531-12.007813 22.84375-14.5625 35.21875-1.488282-.488281-2.980469-.9375-4.484376-1.351562-9.382812-22.3125-7.859374-48.058594 4.0625-69.195313zm-1.664062 91.027344c.003906 6.667969.675781 13.355469 2.015625 19.976562-6.355469 2.21875-12.519531 5.226563-18.339844 9.035157-2.65625 1.738281-4.332031 4.636719-4.507812 7.808593-.386719 6.945313.085937 13.785157 1.34375 20.402344-6.398438 2.148438-12.523438 4.910156-18.300781 8.238282-18.203126-14.675782-29.050782-37.046876-29.285157-60.550782 20.585938-11.664062 45.066407-13.46875 67.074219-4.910156zm-115.796875 112.0625c12.339844-20.972656 33.460937-34.980469 57.636719-38.070312 1.195312 1.199218 2.425781 2.367187 3.6875 3.503906-9.445313 8.402344-17.359375 18.609375-23.234375 30.234375-1.429688 2.835937-1.429688 6.183593 0 9.019531 5.902343 11.679688 13.859375 21.921875 23.359375 30.34375-1.125 1.015625-2.21875 2.050781-3.292969 3.113281-24.117187-2.960937-45.765625-17.175781-58.15625-38.144531zm48.722656 107.734375c.234375-23.574219 11.152344-46.007813 29.453125-60.683594 5.726563 3.285157 11.792969 6.015625 18.132813 8.144531-1.257813 6.617188-1.734375 13.457032-1.34375 20.402344.175781 3.171875 1.851562 6.070313 4.507812 7.808594 5.820313 3.8125 11.984375 6.816406 18.339844 9.035156-1.355469 6.695313-2.027344 13.460938-2.019531 20.203125-22.003906 8.554688-46.488282 6.753907-67.070313-4.910156zm68.429688 95.53125c-11.941407-21.074219-13.554688-46.230469-4.289063-68.636719 1.695313-.457031 3.386719-.960937 5.066406-1.511718 2.566407 12.296874 7.429688 24.167968 14.515626 34.996093 1.738281 2.660157 4.636718 4.332031 7.808593 4.511719 1.929688.105469 3.851563.160156 5.765625.160156 10.992188 0 21.765625-1.769531 31.96875-5.144531.320313 1.546875.679688 3.082031 1.074219 4.601563-14.632813 19.25-37.667969 30.78125-61.910156 31.023437zm117.453125 11.789063c-20.457032-12.03125-34.28125-32.421876-37.820313-55.847657 5.785157-3.34375 11.257813-7.265625 16.328125-11.742187 5.097656 4.394531 10.78125 8.222656 16.988282 11.359375 1.417968.71875 2.964843 1.074219 4.511718 1.074219s3.089844-.355469 4.507813-1.074219c6.207031-3.136719 11.890625-6.964844 16.988281-11.359375 5.074219 4.476562 10.542969 8.398437 16.320312 11.738281-3.554687 23.191406-17.527343 43.859375-37.824218 55.851563zm117.15625-11.609376c-24.308594-.199218-46.976563-11.464843-61.746094-30.820312.441406-1.648438.839844-3.3125 1.195312-4.992188 10.207032 3.382813 20.992188 5.152344 31.992188 5.152344 1.914062 0 3.835938-.054687 5.761719-.160156 3.171875-.179688 6.070312-1.851562 7.8125-4.511719 7.113281-10.871093 11.988281-22.796875 14.546875-35.144531 1.5.496094 3.015625.949219 4.535156 1.367188 9.34375 22.292968 7.8125 48-4.097656 69.109374zm1.664062-90.964843c0-6.6875-.671875-13.398438-2.015625-20.039063 6.355469-2.21875 12.519531-5.226562 18.339844-9.035156 2.65625-1.738281 4.332031-4.636719 4.507813-7.808594.386718-6.945312-.085938-13.785156-1.34375-20.402344 6.425781-2.15625 12.574218-4.933593 18.371093-8.277343 18.617188 14.777343 29.421875 37.003906 29.617188 60.804687-20.597657 11.617188-45.570313 13.359375-67.476563 4.757813zm58.359375-74.078125c-1.230469-1.21875-2.496093-2.40625-3.796875-3.5625 9.402344-8.386719 17.289063-18.5625 23.144532-30.152344 1.429687-2.835938 1.429687-6.183594 0-9.019531-5.832032-11.539063-13.667969-21.675781-23.019532-30.039063 1.21875-1.089844 2.40625-2.203125 3.5625-3.34375 23.875 3.121094 45.261719 17.277344 57.542969 38.070313-12.300781 20.914062-33.339844 34.90625-57.433594 38.046875zm0 0"/><path d="m256.003906 20c2.628906 0 5.207032-1.066406 7.066406-2.929688 1.863282-1.859374 2.933594-4.4375 2.933594-7.070312 0-2.628906-1.070312-5.210938-2.933594-7.066406-1.859374-1.863282-4.4375-2.933594-7.066406-2.933594-2.632812 0-5.210937 1.070312-7.070312 2.933594-1.863282 1.855468-2.929688 4.4375-2.929688 7.066406 0 2.632812 1.066406 5.210938 2.929688 7.070312 1.859375 1.859376 4.4375 2.929688 7.070312 2.929688zm0 0"/></svg>